<svg width="40" height="40" viewBox="0 0 40 40" fill="none" xmlns="http://www.w3.org/2000/svg">
<mask id="mask0_851_100607" style="mask-type:alpha" maskUnits="userSpaceOnUse" x="0" y="0" width="40" height="40">
<rect width="40" height="40" rx="6" fill="#D9D9D9"/>
</mask>
<g mask="url(#mask0_851_100607)">
<path d="M0 9.6C0 6.23969 0 4.55953 0.653961 3.27606C1.2292 2.14708 2.14708 1.2292 3.27606 0.653961C4.55953 0 6.23969 0 9.6 0H30.4C33.7603 0 35.4405 0 36.7239 0.653961C37.8529 1.2292 38.7708 2.14708 39.346 3.27606C40 4.55953 40 6.23969 40 9.6V30.4C40 33.7603 40 35.4405 39.346 36.7239C38.7708 37.8529 37.8529 38.7708 36.7239 39.346C35.4405 40 33.7603 40 30.4 40H9.6C6.23969 40 4.55953 40 3.27606 39.346C2.14708 38.7708 1.2292 37.8529 0.653961 36.7239C0 35.4405 0 33.7603 0 30.4V9.6Z" fill="#466BB1"/>
<path d="M12.5977 15V24.8984H10V15H12.5977Z" fill="white"/>
<path d="M18.2852 19.8672C18.2305 19.4023 17.793 19.1152 17.2461 19.1152C16.7539 19.1152 16.3574 19.3066 16.3711 19.6348C16.3574 19.8672 16.5352 20.0723 17.123 20.1816L18.5996 20.4551C20.1172 20.7285 20.8418 21.3711 20.8555 22.4648C20.8418 24.0371 19.3516 25.0352 17.3145 25.0352C15.0723 25.0352 13.7734 24.0371 13.623 22.5332H16.1934C16.2754 23.0117 16.6992 23.2852 17.3281 23.2852C17.8477 23.2852 18.2168 23.0938 18.2305 22.7656C18.2168 22.4648 17.957 22.3008 17.3555 22.1914L16.0566 21.959C14.5527 21.6855 13.8008 20.9336 13.8008 19.7852C13.8008 18.2539 15.0996 17.3789 17.1914 17.3789C19.2969 17.3789 20.5957 18.3086 20.6641 19.8672H18.2852Z" fill="white"/>
<path d="M21.5938 17.1055V15H30.125V17.1055H27.1445V24.8984H24.5742V17.1055H21.5938Z" fill="white"/>
</g>
</svg>
