<svg width="40" height="40" viewBox="0 0 40 40" fill="none" xmlns="http://www.w3.org/2000/svg">
<path d="M0 8C0 3.58172 3.58172 0 8 0H32C36.4183 0 40 3.58172 40 8V32C40 36.4183 36.4183 40 32 40H8C3.58172 40 0 36.4183 0 32V8Z" fill="#32CD32"/>
<g style="mix-blend-mode:multiply">
<path d="M19.9928 17.1849C23.3576 17.1849 26.0853 14.4572 26.0853 11.0925C26.0853 7.72768 23.3576 5 19.9928 5C16.6281 5 13.9004 7.72768 13.9004 11.0925C13.9004 14.4572 16.6281 17.1849 19.9928 17.1849Z" fill="#32CD32"/>
</g>
<g style="mix-blend-mode:multiply">
<path d="M19.9928 26.3236C23.3576 26.3236 26.0853 23.5959 26.0853 20.2311C26.0853 16.8664 23.3576 14.1387 19.9928 14.1387C16.6281 14.1387 13.9004 16.8664 13.9004 20.2311C13.9004 23.5959 16.6281 26.3236 19.9928 26.3236Z" fill="#32CD32"/>
</g>
<g style="mix-blend-mode:multiply">
<path d="M19.9928 35.4622C23.3576 35.4622 26.0853 32.7346 26.0853 29.3698C26.0853 26.005 23.3576 23.2773 19.9928 23.2773C16.6281 23.2773 13.9004 26.005 13.9004 29.3698C13.9004 32.7346 16.6281 35.4622 19.9928 35.4622Z" fill="#32CD32"/>
</g>
<g style="mix-blend-mode:multiply">
<path d="M27.8932 21.7621C31.258 21.7621 33.9857 19.0344 33.9857 15.6696C33.9857 12.3048 31.258 9.57715 27.8932 9.57715C24.5285 9.57715 21.8008 12.3048 21.8008 15.6696C21.8008 19.0344 24.5285 21.7621 27.8932 21.7621Z" fill="#32CD32"/>
</g>
<g style="mix-blend-mode:multiply">
<path d="M27.9079 30.8929C31.2726 30.8929 34.0003 28.1652 34.0003 24.8005C34.0003 21.4357 31.2726 18.708 27.9079 18.708C24.5431 18.708 21.8154 21.4357 21.8154 24.8005C21.8154 28.1652 24.5431 30.8929 27.9079 30.8929Z" fill="#32CD32"/>
</g>
<g style="mix-blend-mode:multiply">
<path d="M12.0924 21.7621C15.4572 21.7621 18.1849 19.0344 18.1849 15.6696C18.1849 12.3048 15.4572 9.57715 12.0924 9.57715C8.72768 9.57715 6 12.3048 6 15.6696C6 19.0344 8.72768 21.7621 12.0924 21.7621Z" fill="#32CD32"/>
</g>
<g style="mix-blend-mode:multiply">
<path d="M12.0924 30.8929C15.4572 30.8929 18.1849 28.1652 18.1849 24.8005C18.1849 21.4357 15.4572 18.708 12.0924 18.708C8.72768 18.708 6 21.4357 6 24.8005C6 28.1652 8.72768 30.8929 12.0924 30.8929Z" fill="#32CD32"/>
</g>
</svg>
