<svg width="16" height="16" viewBox="0 0 16 16" fill="none" xmlns="http://www.w3.org/2000/svg">
<path fill-rule="evenodd" clip-rule="evenodd" d="M12.9951 3.5332C13.2951 3.53326 13.5487 3.63745 13.7559 3.84473C13.9629 4.05194 14.0663 4.30539 14.0664 4.60547V11.3994C14.0664 11.6997 13.963 11.9527 13.7559 12.1582C13.5487 12.3637 13.2951 12.4667 12.9951 12.4668H3.00488C2.7049 12.4667 2.45129 12.3625 2.24414 12.1553C2.03715 11.9481 1.93368 11.6946 1.93359 11.3945V4.60059C1.93359 4.3003 2.03698 4.04734 2.24414 3.8418C2.45129 3.63631 2.7049 3.53327 3.00488 3.5332H12.9951ZM9.6709 7.49414C9.55657 7.49414 9.45725 7.53798 9.37402 7.62598L8.02832 8.97168C7.91888 9.08112 7.86426 9.20623 7.86426 9.34668C7.86426 9.48723 7.91888 9.61049 8.02832 9.71582L9.37402 11.0615C9.45835 11.1537 9.55893 11.2002 9.6748 11.2002C9.79076 11.2002 9.89249 11.1537 9.98047 11.0615C10.0685 10.9692 10.1133 10.8665 10.1133 10.7539C10.1132 10.6416 10.0684 10.5433 9.98047 10.459L9.31543 9.77734H12.0674C12.19 9.77733 12.2931 9.73502 12.376 9.65039C12.4588 9.56594 12.4999 9.4625 12.5 9.34082C12.5 9.21916 12.4587 9.11658 12.376 9.03418C12.2931 8.95175 12.19 8.91017 12.0674 8.91016H9.31543L9.98047 8.24512C10.0683 8.1568 10.1132 8.05419 10.1133 7.9375C10.1133 7.82075 10.0684 7.71654 9.98047 7.625C9.88815 7.53779 9.78521 7.49416 9.6709 7.49414ZM6.3252 4.7998C6.20924 4.7998 6.10751 4.84632 6.01953 4.93848C5.93153 5.03081 5.88672 5.13354 5.88672 5.24609C5.88683 5.35836 5.93165 5.45668 6.01953 5.54102L6.68457 6.22266H3.93262C3.80999 6.22267 3.70689 6.26498 3.62402 6.34961C3.54124 6.43405 3.50011 6.5375 3.5 6.65918C3.5 6.78084 3.54129 6.88342 3.62402 6.96582C3.7069 7.04825 3.80997 7.08983 3.93262 7.08984H6.68457L6.01953 7.75488C5.93165 7.8432 5.88684 7.94581 5.88672 8.0625C5.88672 8.17925 5.93158 8.28346 6.01953 8.375C6.11185 8.46221 6.21479 8.50584 6.3291 8.50586C6.44343 8.50586 6.54275 8.46202 6.62598 8.37402L7.97168 7.02832C8.08112 6.91888 8.13574 6.79376 8.13574 6.65332C8.13574 6.51277 8.08112 6.38951 7.97168 6.28418L6.62598 4.93848C6.54165 4.84626 6.44107 4.79981 6.3252 4.7998Z" fill="#3D3E40"/>
</svg>
