<svg width="20" height="20" viewBox="0 0 20 20" fill="none" xmlns="http://www.w3.org/2000/svg">
<g id="icon/30020-off/more_horiz">
<g id="Vector">
<path d="M5.68792 11.0833C5.38875 11.0833 5.13417 10.9768 4.92417 10.7638C4.71403 10.5507 4.60896 10.2947 4.60896 9.99563C4.60896 9.69646 4.71549 9.44188 4.92854 9.23188C5.1416 9.02174 5.39764 8.91667 5.69667 8.91667C5.99583 8.91667 6.25049 9.0232 6.46062 9.23625C6.67062 9.44931 6.77563 9.70535 6.77563 10.0044C6.77563 10.3035 6.6691 10.5581 6.45604 10.7681C6.24313 10.9783 5.98708 11.0833 5.68792 11.0833ZM9.99562 11.0833C9.69646 11.0833 9.44188 10.9768 9.23188 10.7638C9.02174 10.5507 8.91667 10.2947 8.91667 9.99563C8.91667 9.69646 9.02319 9.44188 9.23625 9.23188C9.44931 9.02174 9.70535 8.91667 10.0044 8.91667C10.3035 8.91667 10.5581 9.0232 10.7681 9.23625C10.9783 9.44931 11.0833 9.70535 11.0833 10.0044C11.0833 10.3035 10.9768 10.5581 10.7638 10.7681C10.5507 10.9783 10.2947 11.0833 9.99562 11.0833ZM14.3033 11.0833C14.0042 11.0833 13.7495 10.9768 13.5394 10.7638C13.3294 10.5507 13.2244 10.2947 13.2244 9.99563C13.2244 9.69646 13.3309 9.44188 13.544 9.23188C13.7569 9.02174 14.0129 8.91667 14.3121 8.91667C14.6112 8.91667 14.8658 9.0232 15.0758 9.23625C15.286 9.44931 15.391 9.70535 15.391 10.0044C15.391 10.3035 15.2845 10.5581 15.0715 10.7681C14.8584 10.9783 14.6024 11.0833 14.3033 11.0833Z" fill="#3C3C3C"/>
</g>
</g>
</svg>
