<svg width="40" height="40" viewBox="0 0 40 40" fill="none" xmlns="http://www.w3.org/2000/svg">
<mask id="mask0_851_100713" style="mask-type:alpha" maskUnits="userSpaceOnUse" x="0" y="0" width="40" height="40">
<rect width="40" height="40" rx="6" fill="#D9D9D9"/>
</mask>
<g mask="url(#mask0_851_100713)">
<path d="M0 9.6C0 6.23969 0 4.55953 0.653961 3.27606C1.2292 2.14708 2.14708 1.2292 3.27606 0.653961C4.55953 0 6.23969 0 9.6 0H30.4C33.7603 0 35.4405 0 36.7239 0.653961C37.8529 1.2292 38.7708 2.14708 39.346 3.27606C40 4.55953 40 6.23969 40 9.6V30.4C40 33.7603 40 35.4405 39.346 36.7239C38.7708 37.8529 37.8529 38.7708 36.7239 39.346C35.4405 40 33.7603 40 30.4 40H9.6C6.23969 40 4.55953 40 3.27606 39.346C2.14708 38.7708 1.2292 37.8529 0.653961 36.7239C0 35.4405 0 33.7603 0 30.4V9.6Z" fill="#707070"/>
<path d="M6.11719 23.8984H3.30078L6.5957 14H10.1367L13.418 23.8984H10.6152L10.0273 21.957H6.70508L6.11719 23.8984ZM7.30664 19.9883H9.42578L8.40039 16.666H8.31836L7.30664 19.9883Z" fill="#C3C3C3"/>
<path d="M14.4297 23.8984V16.4746H16.9316V17.8691H17.0137C17.2871 16.8438 17.9023 16.3789 18.709 16.3789C18.9414 16.3789 19.1738 16.4062 19.3789 16.4609V18.6895C19.1191 18.5938 18.6816 18.5527 18.4082 18.5527C17.6016 18.5527 17.0137 19.127 17.0137 19.9883V23.8984H14.4297Z" fill="#C3C3C3"/>
<path d="M23.5762 26.8379C21.3613 26.8379 20.0762 25.8262 19.9668 24.4043H22.4688C22.5508 24.8828 23.0156 25.0879 23.6445 25.0879C24.3691 25.0879 24.8887 24.7871 24.8887 23.8848V22.6133H24.8203C24.5332 23.3516 23.7539 23.8027 22.7285 23.8027C21.1289 23.8027 19.7891 22.7363 19.7891 20.1797C19.7891 17.5137 21.2109 16.3789 22.7012 16.3789C23.8223 16.3789 24.5059 17.0215 24.793 17.7598H24.8613V16.4746H27.4453V23.8984C27.4453 25.7852 25.9004 26.8379 23.5762 26.8379ZM23.6582 21.957C24.4375 21.957 24.9023 21.3008 24.9023 20.1797C24.9023 19.0586 24.4375 18.375 23.6582 18.375C22.8926 18.375 22.4551 19.0586 22.4551 20.1797C22.4551 21.3145 22.8926 21.957 23.6582 21.957Z" fill="#C3C3C3"/>
<path d="M32.3672 24.0352C29.9746 24.0352 28.5391 22.4902 28.5391 20.207C28.5391 17.9238 29.9746 16.3789 32.3672 16.3789C34.7598 16.3789 36.1816 17.9238 36.1816 20.207C36.1816 22.4902 34.7598 24.0352 32.3672 24.0352ZM32.3809 22.1211C33.1055 22.1211 33.543 21.3691 33.543 20.1934C33.543 19.0039 33.1055 18.2656 32.3809 18.2656C31.6289 18.2656 31.1777 19.0039 31.1777 20.1934C31.1777 21.3691 31.6289 22.1211 32.3809 22.1211Z" fill="#C3C3C3"/>
</g>
</svg>
