<svg width="40" height="40" viewBox="0 0 40 40" fill="none" xmlns="http://www.w3.org/2000/svg">
<path d="M0 8C0 3.58172 3.58172 0 8 0H32C36.4183 0 40 3.58172 40 8V32C40 36.4183 36.4183 40 32 40H8C3.58172 40 0 36.4183 0 32V8Z" fill="#F6F7F9"/>
<path d="M10.8682 14.7015L6.10938 7.23145H9.54138L12.5675 12.0415L15.6181 7.23145H18.9036L13.9219 14.7015V19.4374H10.8682V14.7015Z" fill="black"/>
<path d="M24.031 16.7513H18.5041L17.38 19.4656H14.9326L20.108 7.25977H22.6114L27.5768 19.4656H24.9614L24.031 16.7513ZM23.1129 14.3145L21.4186 9.83533L19.5284 14.3145H23.1129Z" fill="#CB171E"/>
<path d="M10.8682 20.8066V32.7695H13.4347V24.5175L16.1211 30.0641H18.1412L20.9194 24.3228V32.7668H23.3818V20.8066H20.0198L17.0365 26.2165L14.1954 20.8066H10.8682Z" fill="black"/>
<path d="M33.8911 30.1693H27.5773V20.8027H24.9619V32.7146H33.8911V30.1693Z" fill="black"/>
</svg>
