<svg width="40" height="40" viewBox="0 0 40 40" fill="none" xmlns="http://www.w3.org/2000/svg">
<mask id="mask0_851_100625" style="mask-type:alpha" maskUnits="userSpaceOnUse" x="0" y="0" width="40" height="40">
<rect width="40" height="40" rx="6" fill="#D9D9D9"/>
</mask>
<g mask="url(#mask0_851_100625)">
<path d="M0 9.6C0 6.23969 0 4.55953 0.653961 3.27606C1.2292 2.14708 2.14708 1.2292 3.27606 0.653961C4.55953 0 6.23969 0 9.6 0H30.4C33.7603 0 35.4405 0 36.7239 0.653961C37.8529 1.2292 38.7708 2.14708 39.346 3.27606C40 4.55953 40 6.23969 40 9.6V30.4C40 33.7603 40 35.4405 39.346 36.7239C38.7708 37.8529 37.8529 38.7708 36.7239 39.346C35.4405 40 33.7603 40 30.4 40H9.6C6.23969 40 4.55953 40 3.27606 39.346C2.14708 38.7708 1.2292 37.8529 0.653961 36.7239C0 35.4405 0 33.7603 0 30.4V9.6Z" fill="#14BD76"/>
<path d="M14.5176 15V24.8984H12.3438L8.66602 19.5527H8.59766V24.8984H6V15H8.21484L11.8379 20.3184H11.9199V15H14.5176Z" fill="white"/>
<path d="M19.4121 25.0352C17.0469 25.0352 15.5977 23.5996 15.5977 21.207C15.5977 18.9102 17.0605 17.3789 19.3574 17.3789C21.5586 17.3789 23.0215 18.8008 23.0215 21.1797V21.7949H18.1543V21.8906C18.1543 22.6562 18.6465 23.2031 19.4668 23.2031C20.0273 23.2031 20.4785 22.957 20.6426 22.5332H23.0078C22.748 24.0645 21.4355 25.0352 19.4121 25.0352ZM18.1543 20.3457H20.6289C20.6152 19.6758 20.0957 19.2109 19.4121 19.2109C18.7217 19.2109 18.1748 19.6826 18.1543 20.3457Z" fill="white"/>
<path d="M26.8496 15L28.5176 17.9531H28.5996L30.2949 15H33.207L30.2402 19.9492L33.3164 24.8984H30.3359L28.5996 21.9043H28.5176L26.7949 24.8984H23.8281L26.877 19.9492L23.9238 15H26.8496Z" fill="white"/>
</g>
</svg>
