<svg width="40" height="40" viewBox="0 0 40 40" fill="none" xmlns="http://www.w3.org/2000/svg">
<path d="M0 8C0 3.58172 3.58172 0 8 0H32C36.4183 0 40 3.58172 40 8V32C40 36.4183 36.4183 40 32 40H8C3.58172 40 0 36.4183 0 32V8Z" fill="#F6F7F9"/>
<g clip-path="url(#clip0_361_56224)">
<path d="M13.7656 12.6715C13.7219 12.6496 13.7 12.6059 13.6562 12.584C12.9563 11.9059 12.4094 11.0965 12.0812 10.1559C11.9937 9.89336 11.9281 9.63086 11.9281 9.34648V9.25898C11.95 8.88711 12.1906 8.71211 12.5406 8.79961C12.65 8.82148 12.7594 8.86523 12.8469 8.93086C13.2406 9.12773 13.5469 9.41211 13.8312 9.74023C14.3344 10.2871 14.75 10.9434 15.0344 11.6434C15.0344 11.6652 15.0563 11.6871 15.0563 11.6871C15.0563 11.6871 15.0781 11.709 15.1 11.709C16.4562 10.8777 18.0094 10.3746 19.6062 10.2871C19.5844 10.2434 19.5844 10.1996 19.5844 10.1559C19.4312 9.47773 19.3656 8.75586 19.4313 8.05586C19.4531 7.64023 19.5406 7.22461 19.6719 6.80898C19.7375 6.59023 19.8469 6.41523 19.9781 6.24023C20.0219 6.17461 20.0875 6.13086 20.1531 6.08711C20.2844 5.99961 20.4594 5.99961 20.5906 6.08711C20.7219 6.17461 20.8312 6.30586 20.9187 6.45898C21.05 6.72148 21.1594 7.00586 21.2031 7.29023C21.3344 7.90273 21.3781 8.53711 21.3125 9.17148C21.2906 9.54336 21.225 9.93711 21.1156 10.309C21.5094 10.3746 21.9031 10.4402 22.2969 10.5277C22.6906 10.6152 23.0625 10.7246 23.4344 10.8777C23.8062 11.009 24.1781 11.184 24.5281 11.359C24.8781 11.534 25.2063 11.7527 25.5562 11.9496C25.5781 11.9277 25.5781 11.9059 25.6 11.8621C25.9719 10.834 26.6063 9.91523 27.4375 9.19336C27.6344 9.01836 27.8531 8.88711 28.0938 8.79961C28.1594 8.77773 28.225 8.75586 28.2906 8.75586C28.6406 8.71211 28.7938 8.93086 28.8156 9.21523C28.8375 9.41211 28.8156 9.60898 28.7719 9.80586C28.6406 10.309 28.4438 10.7684 28.1812 11.2059C27.8094 11.8402 27.35 12.3871 26.7812 12.8465C26.7594 12.8684 26.7375 12.8684 26.7156 12.9121C27.2625 13.4371 27.7656 14.0277 28.2031 14.6621C28.1594 14.6621 28.1375 14.684 28.1156 14.684H26.3438C26.2781 14.684 26.2125 14.6402 26.1687 14.5965C24.8781 13.1527 23.15 12.234 21.2688 11.9496C20.7219 11.8621 20.1531 11.8402 19.5844 11.884C17.9219 11.9934 16.3031 12.6277 15.0125 13.6996C14.6844 13.9621 14.3563 14.2684 14.0719 14.5965C14.0281 14.6621 13.9406 14.7059 13.8531 14.7059H12.0375C12.0813 14.5746 12.4094 14.0934 12.8031 13.6559C13.1312 13.3059 13.4375 12.9996 13.7656 12.6715ZM28.0719 25.5559C27.6781 26.1246 27.2406 26.6277 26.7375 27.109C26.7812 27.1527 26.8031 27.1746 26.8469 27.1965C27.7 27.9184 28.3563 28.859 28.7281 29.9309C28.8156 30.1934 28.8594 30.4777 28.8594 30.7402C28.8594 30.8059 28.8375 30.8715 28.8156 30.959C28.75 31.1559 28.5531 31.2871 28.3562 31.2434C28.225 31.2215 28.0938 31.1777 27.9844 31.134C27.8094 31.0465 27.6344 30.9371 27.4812 30.8059C26.65 30.1059 26.0156 29.1871 25.6438 28.159C25.6219 28.1371 25.6219 28.0934 25.6 28.0496C25.1625 28.3559 24.7031 28.6184 24.2219 28.8371C23.7406 29.0559 23.2375 29.2527 22.7344 29.384C22.2094 29.5152 21.7063 29.6246 21.1594 29.6902C21.1813 29.734 21.1813 29.7777 21.1813 29.8215C21.3563 30.4996 21.4 31.1996 21.3562 31.8996C21.3344 32.3371 21.2469 32.7527 21.1156 33.1684C21.05 33.3434 20.9625 33.4965 20.875 33.6715C20.8313 33.7371 20.7875 33.7809 20.7438 33.8465C20.525 34.0871 20.2625 34.0871 20.0437 33.8465C19.9562 33.759 19.8906 33.6496 19.825 33.5184C19.65 33.1902 19.5625 32.8402 19.4969 32.4684C19.4094 31.9652 19.3875 31.4621 19.4094 30.959C19.4312 30.5871 19.475 30.2152 19.5625 29.8652C19.5625 29.8434 19.5844 29.7996 19.5844 29.7777C19.5844 29.7777 19.5844 29.7559 19.5625 29.734C17.9656 29.6465 16.4344 29.1652 15.0563 28.3121L14.9906 28.4434C14.5969 29.3621 14.0281 30.1715 13.2844 30.8059C13.0875 30.9809 12.8687 31.1121 12.6281 31.1996C12.5187 31.2434 12.3875 31.2652 12.2781 31.2434C12.1469 31.2215 12.0375 31.134 11.9719 30.9809C11.8844 30.784 11.9062 30.5871 11.9281 30.3902C11.9719 30.1059 12.0594 29.8434 12.1688 29.5809C12.4969 28.7715 13.0219 28.0496 13.6344 27.4371C13.6563 27.4152 13.6781 27.3934 13.7219 27.3715C13.7219 27.3496 13.7438 27.3496 13.7438 27.3277C13.1531 26.8027 12.6063 26.2121 12.1688 25.5559C12.2344 25.5559 12.2562 25.534 12.3 25.534H14.05C14.1375 25.534 14.2031 25.5777 14.2469 25.6215C14.8813 26.2996 15.625 26.8465 16.4344 27.2621C17.2875 27.7215 18.2281 28.0059 19.1906 28.0934C21.8156 28.3559 24.0687 27.5465 25.95 25.6652C26.0375 25.5777 26.1469 25.5121 26.2781 25.534H28.05L28.0719 25.5559ZM25.6438 17.0246C25.7969 17.0246 25.95 17.0465 26.1031 17.0246C26.2781 17.0027 26.3875 17.0684 26.5188 17.1777C27.2188 17.834 27.9188 18.4902 28.6406 19.1465L28.75 19.2559C28.7938 19.2121 28.8375 19.1902 28.8813 19.1465C29.6031 18.4684 30.3469 17.7902 31.0469 17.1121C31.1125 17.0465 31.2 17.0246 31.2875 17.0246H31.8344V23.0184C31.7469 23.0402 30.4562 23.0621 30.3031 23.0184V19.9777L30.2812 19.9559C29.7781 20.4152 29.275 20.8965 28.7719 21.3559C28.2687 20.8746 27.7656 20.4152 27.2406 19.9559L27.2188 19.9777V23.0402H25.6875C25.6437 22.9309 25.6219 17.3746 25.6438 17.0246ZM11.6 17.0246H13.1094C13.1531 17.134 13.1531 22.8871 13.1094 23.0184H11.6C11.5781 22.6465 11.6 22.2527 11.6 21.8809V20.7434H9.71875V22.9965C9.60938 23.0402 8.31875 23.0402 8.1875 22.9965V17.0246H9.71875V19.1465C9.82812 19.1902 11.425 19.1902 11.6 19.1465V17.0246ZM14.925 23.0184V17.0465C15.0125 17.0246 18.3375 17.0027 18.5563 17.0246V18.2934C18.5125 18.2934 18.4469 18.3152 18.4031 18.3152H16.4563V19.2996H18.3156V20.6121H16.4781C16.4344 20.7215 16.4344 21.509 16.4563 21.7277C16.5 21.7277 16.5656 21.7496 16.6094 21.7496H18.5563V23.0184H14.925ZM20.3063 23.0184C20.2844 22.8652 20.2844 17.134 20.3063 17.0246H21.8156V21.4434C21.8813 21.4434 21.925 21.4434 21.9906 21.4652H23.9375V23.0402L20.3063 23.0184Z" fill="#0F1689"/>
</g>
<defs>
<clipPath id="clip0_361_56224">
<rect width="28" height="28" fill="white" transform="translate(6 6)"/>
</clipPath>
</defs>
</svg>
