<svg width="16" height="16" viewBox="0 0 16 16" fill="none" xmlns="http://www.w3.org/2000/svg">
<g id="icon/fill-on/vm-oke(300)">
<mask id="mask0_5113_314686" style="mask-type:alpha" maskUnits="userSpaceOnUse" x="0" y="0" width="16" height="16">
<rect id="Bounding box" width="16" height="16" fill="#D9D9D9"/>
</mask>
<g mask="url(#mask0_5113_314686)">
<path id="settop_component" d="M1.66626 11V5H14.3329V11H1.66626ZM6.66738 8.60255C6.83841 8.60255 6.98141 8.54469 7.09636 8.42898C7.21133 8.31327 7.26881 8.1699 7.26881 7.99887C7.26881 7.82782 7.21095 7.68482 7.09524 7.56987C6.97953 7.4549 6.83615 7.39742 6.66511 7.39742C6.49408 7.39742 6.35108 7.45527 6.23613 7.57098C6.12116 7.68669 6.06368 7.83007 6.06368 8.0011C6.06368 8.17214 6.12153 8.31514 6.23724 8.4301C6.35295 8.54507 6.49633 8.60255 6.66738 8.60255ZM9.33404 8.60255C9.50508 8.60255 9.64807 8.54469 9.76303 8.42898C9.87799 8.31327 9.93548 8.1699 9.93548 7.99887C9.93548 7.82782 9.87762 7.68482 9.76191 7.56987C9.6462 7.4549 9.50282 7.39742 9.33178 7.39742C9.16074 7.39742 9.01775 7.45527 8.90279 7.57098C8.78783 7.68669 8.73034 7.83007 8.73034 8.0011C8.73034 8.17214 8.7882 8.31514 8.90391 8.4301C9.01962 8.54507 9.163 8.60255 9.33404 8.60255Z" fill="#000000"/>
</g>
</g>
</svg>
