<svg width="40" height="40" viewBox="0 0 40 40" fill="none" xmlns="http://www.w3.org/2000/svg">
<mask id="mask0_851_100722" style="mask-type:alpha" maskUnits="userSpaceOnUse" x="0" y="0" width="40" height="40">
<rect width="40" height="40" fill="#D9D9D9"/>
</mask>
<g mask="url(#mask0_851_100722)">
<path d="M0 9.6C0 6.23969 0 4.55953 0.653961 3.27606C1.2292 2.14708 2.14708 1.2292 3.27606 0.653961C4.55953 0 6.23969 0 9.6 0H30.4C33.7603 0 35.4405 0 36.7239 0.653961C37.8529 1.2292 38.7708 2.14708 39.346 3.27606C40 4.55953 40 6.23969 40 9.6V30.4C40 33.7603 40 35.4405 39.346 36.7239C38.7708 37.8529 37.8529 38.7708 36.7239 39.346C35.4405 40 33.7603 40 30.4 40H9.6C6.23969 40 4.55953 40 3.27606 39.346C2.14708 38.7708 1.2292 37.8529 0.653961 36.7239C0 35.4405 0 33.7603 0 30.4V9.6Z" fill="#707070"/>
<path d="M13 5.2C13 5.08954 13.0895 5 13.2 5H14.8C14.9105 5 15 5.08954 15 5.2V8H13V5.2Z" fill="#8A8A8A"/>
<path d="M17 5.2C17 5.08954 17.0895 5 17.2 5H18.8C18.9105 5 19 5.08954 19 5.2V8H17V5.2Z" fill="#8A8A8A"/>
<path d="M21 5.2C21 5.08954 21.0895 5 21.2 5H22.8C22.9105 5 23 5.08954 23 5.2V8H21V5.2Z" fill="#8A8A8A"/>
<path d="M25 5.2C25 5.08954 25.0895 5 25.2 5H26.8C26.9105 5 27 5.08954 27 5.2V8H25V5.2Z" fill="#8A8A8A"/>
<path d="M13 32H15V34.8C15 34.9105 14.9105 35 14.8 35H13.2C13.0895 35 13 34.9105 13 34.8V32Z" fill="#8A8A8A"/>
<path d="M17 32H19V34.8C19 34.9105 18.9105 35 18.8 35H17.2C17.0895 35 17 34.9105 17 34.8V32Z" fill="#8A8A8A"/>
<path d="M21 32H23V34.8C23 34.9105 22.9105 35 22.8 35H21.2C21.0895 35 21 34.9105 21 34.8V32Z" fill="#8A8A8A"/>
<path d="M25 32H27V34.8C27 34.9105 26.9105 35 26.8 35H25.2C25.0895 35 25 34.9105 25 34.8V32Z" fill="#8A8A8A"/>
<path d="M5.2 27C5.08954 27 5 26.9105 5 26.8L5 25.2C5 25.0895 5.08954 25 5.2 25L8 25L8 27L5.2 27Z" fill="#8A8A8A"/>
<path d="M5.2 23C5.08954 23 5 22.9105 5 22.8L5 21.2C5 21.0895 5.08954 21 5.2 21L8 21L8 23L5.2 23Z" fill="#8A8A8A"/>
<path d="M5.2 19C5.08954 19 5 18.9105 5 18.8L5 17.2C5 17.0895 5.08954 17 5.2 17L8 17L8 19L5.2 19Z" fill="#8A8A8A"/>
<path d="M5.2 15C5.08954 15 5 14.9105 5 14.8L5 13.2C5 13.0895 5.08954 13 5.2 13L8 13L8 15L5.2 15Z" fill="#8A8A8A"/>
<path d="M32 27L32 25L34.8 25C34.9105 25 35 25.0895 35 25.2L35 26.8C35 26.9105 34.9105 27 34.8 27L32 27Z" fill="#8A8A8A"/>
<path d="M32 23L32 21L34.8 21C34.9105 21 35 21.0895 35 21.2L35 22.8C35 22.9105 34.9105 23 34.8 23L32 23Z" fill="#8A8A8A"/>
<path d="M32 19L32 17L34.8 17C34.9105 17 35 17.0895 35 17.2L35 18.8C35 18.9105 34.9105 19 34.8 19L32 19Z" fill="#8A8A8A"/>
<path d="M32 15L32 13L34.8 13C34.9105 13 35 13.0895 35 13.2L35 14.8C35 14.9105 34.9105 15 34.8 15L32 15Z" fill="#8A8A8A"/>
<path d="M8 10C8 8.89543 8.89543 8 10 8H30C31.1046 8 32 8.89543 32 10V30C32 31.1046 31.1046 32 30 32H10C8.89543 32 8 31.1046 8 30V10Z" fill="#8A8A8A"/>
</g>
<g clip-path="url(#clip0_851_100722)">
<path d="M28 13.1473V26.851C28 27.486 27.486 28 26.851 28H13.1473C12.8315 28 12.5443 27.8707 12.336 27.664C12.1293 27.4557 12 27.1685 12 26.851V13.1473C12 12.8298 12.1293 12.5443 12.336 12.336C12.5443 12.1277 12.8315 12 13.1473 12H26.851C27.486 12 28 12.514 28 13.1473Z" fill="#B1B1B1"/>
<path d="M24.6943 14.5195H15.3059C14.8717 14.5195 14.5198 14.8715 14.5198 15.3057V24.694C14.5198 25.1282 14.8717 25.4802 15.3059 25.4802H24.6943C25.1284 25.4802 25.4804 25.1282 25.4804 24.694V15.3057C25.4804 14.8715 25.1284 14.5195 24.6943 14.5195Z" fill="#C3C3C3"/>
</g>
<defs>
<clipPath id="clip0_851_100722">
<rect width="16" height="16" fill="white" transform="translate(12 12)"/>
</clipPath>
</defs>
</svg>
