<svg width="40" height="40" viewBox="0 0 40 40" fill="none" xmlns="http://www.w3.org/2000/svg">
<mask id="mask0_851_100672" style="mask-type:alpha" maskUnits="userSpaceOnUse" x="0" y="0" width="40" height="40">
<rect width="40" height="40" rx="6" fill="#D9D9D9"/>
</mask>
<g mask="url(#mask0_851_100672)">
<path d="M0 9.6C0 6.23969 0 4.55953 0.653961 3.27606C1.2292 2.14708 2.14708 1.2292 3.27606 0.653961C4.55953 0 6.23969 0 9.6 0H30.4C33.7603 0 35.4405 0 36.7239 0.653961C37.8529 1.2292 38.7708 2.14708 39.346 3.27606C40 4.55953 40 6.23969 40 9.6V30.4C40 33.7603 40 35.4405 39.346 36.7239C38.7708 37.8529 37.8529 38.7708 36.7239 39.346C35.4405 40 33.7603 40 30.4 40H9.6C6.23969 40 4.55953 40 3.27606 39.346C2.14708 38.7708 1.2292 37.8529 0.653961 36.7239C0 35.4405 0 33.7603 0 30.4V9.6Z" fill="#019CDC"/>
<path d="M7.93945 15L10.0176 22.0547H10.0996L12.1777 15H15.1172L11.8359 24.8984H8.29492L5 15H7.93945Z" fill="white"/>
<path d="M18.7266 25.0352C16.3613 25.0352 14.9121 23.5996 14.9121 21.207C14.9121 18.9102 16.375 17.3789 18.6719 17.3789C20.873 17.3789 22.3359 18.8008 22.3359 21.1797V21.7949H17.4688V21.8906C17.4688 22.6562 17.9609 23.2031 18.7812 23.2031C19.3418 23.2031 19.793 22.957 19.957 22.5332H22.3223C22.0625 24.0645 20.75 25.0352 18.7266 25.0352ZM17.4688 20.3457H19.9434C19.9297 19.6758 19.4102 19.2109 18.7266 19.2109C18.0361 19.2109 17.4893 19.6826 17.4688 20.3457Z" fill="white"/>
<path d="M26.0273 15V24.8984H23.4434V15H26.0273Z" fill="white"/>
<path d="M27.3809 24.8984V15H34.4492V17.1055H29.9785V18.8965H34.0801V21.002H29.9785V22.793H34.4355V24.8984H27.3809Z" fill="white"/>
</g>
</svg>
