<svg width="40" height="40" viewBox="0 0 40 40" fill="none" xmlns="http://www.w3.org/2000/svg">
<mask id="mask0_851_100715" style="mask-type:alpha" maskUnits="userSpaceOnUse" x="0" y="0" width="40" height="40">
<rect width="40" height="40" rx="6" fill="#D9D9D9"/>
</mask>
<g mask="url(#mask0_851_100715)">
<path d="M0 9.6C0 6.23969 0 4.55953 0.653961 3.27606C1.2292 2.14708 2.14708 1.2292 3.27606 0.653961C4.55953 0 6.23969 0 9.6 0H30.4C33.7603 0 35.4405 0 36.7239 0.653961C37.8529 1.2292 38.7708 2.14708 39.346 3.27606C40 4.55953 40 6.23969 40 9.6V30.4C40 33.7603 40 35.4405 39.346 36.7239C38.7708 37.8529 37.8529 38.7708 36.7239 39.346C35.4405 40 33.7603 40 30.4 40H9.6C6.23969 40 4.55953 40 3.27606 39.346C2.14708 38.7708 1.2292 37.8529 0.653961 36.7239C0 35.4405 0 33.7603 0 30.4V9.6Z" fill="#707070"/>
<path d="M4 24.8984V15H6.59766V18.8965H10.248V15H12.8594V24.8984H10.248V21.002H6.59766V24.8984H4Z" fill="#C3C3C3"/>
<path d="M13.8574 22.8477C13.8574 21.207 15.0742 20.5781 16.5918 20.4824L18.3281 20.4141V19.8125C18.3281 19.4023 17.9863 19.1699 17.4805 19.1699C16.9473 19.1699 16.6055 19.4023 16.5371 19.8672H14.1445C14.2402 18.5137 15.334 17.3789 17.5215 17.3789C19.5859 17.3789 20.9121 18.3906 20.9121 19.8262V24.8984H18.4922V23.8594H18.4375C18 24.666 17.2617 25.0215 16.2773 25.0215C14.8555 25.0215 13.8574 24.3242 13.8574 22.8477ZM16.291 22.6973C16.291 23.1348 16.6328 23.3672 17.1113 23.3672C17.7539 23.3672 18.3555 22.957 18.3418 22.2598V21.8633C18.082 21.8701 17.3984 21.8975 17.0566 21.9316C16.5918 21.9863 16.291 22.3008 16.291 22.6973Z" fill="#C3C3C3"/>
<path d="M22.2246 24.8984V17.4746H24.7266V18.8691H24.8086C25.082 17.8438 25.6973 17.3789 26.5039 17.3789C26.7363 17.3789 26.9688 17.4062 27.1738 17.4609V19.6895C26.9141 19.5938 26.4766 19.5527 26.2031 19.5527C25.3965 19.5527 24.8086 20.127 24.8086 20.9883V24.8984H22.2246Z" fill="#C3C3C3"/>
<path d="M28.0352 24.8984V15H32.2734C34.5293 15 35.7188 15.9707 35.7188 17.4883C35.7188 18.582 34.9395 19.416 33.8184 19.6484V19.7441C35.0625 19.7852 36.1016 20.7012 36.1016 22.1094C36.1016 23.7227 34.7891 24.8984 32.6289 24.8984H28.0352ZM31.959 22.8066C32.8887 22.8066 33.3535 22.4512 33.3535 21.7812C33.3535 21.0566 32.834 20.6465 32 20.6465H30.6328V22.8066H31.959ZM31.7949 19.0195C32.5195 19.0195 33.0391 18.6641 33.0391 18.0352C33.0391 17.4062 32.5469 17.0508 31.8359 17.0508H30.6328V19.0195H31.7949Z" fill="#C3C3C3"/>
</g>
</svg>
