<svg width="40" height="40" viewBox="0 0 40 40" fill="none" xmlns="http://www.w3.org/2000/svg">
<mask id="mask0_851_100656" style="mask-type:alpha" maskUnits="userSpaceOnUse" x="0" y="0" width="40" height="40">
<rect width="40" height="40" rx="6" fill="#D9D9D9"/>
</mask>
<g mask="url(#mask0_851_100656)">
<path d="M0 9.6C0 6.23969 0 4.55953 0.653961 3.27606C1.2292 2.14708 2.14708 1.2292 3.27606 0.653961C4.55953 0 6.23969 0 9.6 0H30.4C33.7603 0 35.4405 0 36.7239 0.653961C37.8529 1.2292 38.7708 2.14708 39.346 3.27606C40 4.55953 40 6.23969 40 9.6V30.4C40 33.7603 40 35.4405 39.346 36.7239C38.7708 37.8529 37.8529 38.7708 36.7239 39.346C35.4405 40 33.7603 40 30.4 40H9.6C6.23969 40 4.55953 40 3.27606 39.346C2.14708 38.7708 1.2292 37.8529 0.653961 36.7239C0 35.4405 0 33.7603 0 30.4V9.6Z" fill="#089841"/>
<path d="M14.6177 14V23.8984H12.4438L8.76611 18.5527H8.69775V23.8984H6.1001V14H8.31494L11.938 19.3184H12.02V14H14.6177Z" fill="white"/>
<path d="M19.5259 26.8379C17.311 26.8379 16.0259 25.8262 15.9165 24.4043H18.4185C18.5005 24.8828 18.9653 25.0879 19.5942 25.0879C20.3188 25.0879 20.8384 24.7871 20.8384 23.8848V22.6133H20.77C20.4829 23.3516 19.7036 23.8027 18.6782 23.8027C17.0786 23.8027 15.7388 22.7363 15.7388 20.1797C15.7388 17.5137 17.1606 16.3789 18.6509 16.3789C19.772 16.3789 20.4556 17.0215 20.7427 17.7598H20.811V16.4746H23.395V23.8984C23.395 25.7852 21.8501 26.8379 19.5259 26.8379ZM19.6079 21.957C20.3872 21.957 20.8521 21.3008 20.8521 20.1797C20.8521 19.0586 20.3872 18.375 19.6079 18.375C18.8423 18.375 18.4048 19.0586 18.4048 20.1797C18.4048 21.3145 18.8423 21.957 19.6079 21.957Z" fill="white"/>
<path d="M27.4966 14L29.1646 16.9531H29.2466L30.9419 14H33.854L30.8872 18.9492L33.9634 23.8984H30.9829L29.2466 20.9043H29.1646L27.4419 23.8984H24.4751L27.5239 18.9492L24.5708 14H27.4966Z" fill="white"/>
</g>
</svg>
