<svg width="40" height="40" viewBox="0 0 40 40" fill="none" xmlns="http://www.w3.org/2000/svg">
<mask id="mask0_851_100664" style="mask-type:alpha" maskUnits="userSpaceOnUse" x="0" y="0" width="40" height="40">
<rect width="40" height="40" rx="6" fill="#D9D9D9"/>
</mask>
<g mask="url(#mask0_851_100664)">
<path d="M0 9.6C0 6.23969 0 4.55953 0.653961 3.27606C1.2292 2.14708 2.14708 1.2292 3.27606 0.653961C4.55953 0 6.23969 0 9.6 0H30.4C33.7603 0 35.4405 0 36.7239 0.653961C37.8529 1.2292 38.7708 2.14708 39.346 3.27606C40 4.55953 40 6.23969 40 9.6V30.4C40 33.7603 40 35.4405 39.346 36.7239C38.7708 37.8529 37.8529 38.7708 36.7239 39.346C35.4405 40 33.7603 40 30.4 40H9.6C6.23969 40 4.55953 40 3.27606 39.346C2.14708 38.7708 1.2292 37.8529 0.653961 36.7239C0 35.4405 0 33.7603 0 30.4V9.6Z" fill="#0896DE"/>
<path d="M5.69995 25.6094V15.7109H8.29761V19.7578H8.43433L11.4968 15.7109H14.5457L11.155 20.127L14.614 25.6094H11.4968L9.21362 21.8496L8.29761 23.0254V25.6094H5.69995Z" fill="white"/>
<path d="M15.8582 25.6094V18.1855H18.4421V25.6094H15.8582ZM17.1433 17.3789C16.4324 17.3789 15.8582 16.8457 15.8582 16.1895C15.8582 15.5332 16.4324 15 17.1433 15C17.8542 15 18.4285 15.5332 18.4285 16.1895C18.4285 16.8457 17.8542 17.3789 17.1433 17.3789Z" fill="white"/>
<path d="M19.4675 23.5586C19.4675 21.918 20.6843 21.2891 22.2019 21.1934L23.9382 21.125V20.5234C23.9382 20.1133 23.5964 19.8809 23.0906 19.8809C22.5574 19.8809 22.2156 20.1133 22.1472 20.5781H19.7546C19.8503 19.2246 20.9441 18.0898 23.1316 18.0898C25.196 18.0898 26.5222 19.1016 26.5222 20.5371V25.6094H24.1023V24.5703H24.0476C23.6101 25.377 22.8718 25.7324 21.8875 25.7324C20.4656 25.7324 19.4675 25.0352 19.4675 23.5586ZM21.9011 23.4082C21.9011 23.8457 22.2429 24.0781 22.7214 24.0781C23.364 24.0781 23.9656 23.668 23.9519 22.9707V22.5742C23.6921 22.5811 23.0085 22.6084 22.6667 22.6426C22.2019 22.6973 21.9011 23.0117 21.9011 23.4082Z" fill="white"/>
<path d="M27.8074 25.6094V15.7109H30.405V23.5039H34.4382V25.6094H27.8074Z" fill="white"/>
</g>
</svg>
