<svg width="40" height="40" viewBox="0 0 40 40" fill="none" xmlns="http://www.w3.org/2000/svg">
<mask id="mask0_851_100630" style="mask-type:alpha" maskUnits="userSpaceOnUse" x="0" y="0" width="40" height="40">
<rect width="40" height="40" rx="6" fill="#D9D9D9"/>
</mask>
<g mask="url(#mask0_851_100630)">
<path d="M0 9.6C0 6.23969 0 4.55953 0.653961 3.27606C1.2292 2.14708 2.14708 1.2292 3.27606 0.653961C4.55953 0 6.23969 0 9.6 0H30.4C33.7603 0 35.4405 0 36.7239 0.653961C37.8529 1.2292 38.7708 2.14708 39.346 3.27606C40 4.55953 40 6.23969 40 9.6V30.4C40 33.7603 40 35.4405 39.346 36.7239C38.7708 37.8529 37.8529 38.7708 36.7239 39.346C35.4405 40 33.7603 40 30.4 40H9.6C6.23969 40 4.55953 40 3.27606 39.346C2.14708 38.7708 1.2292 37.8529 0.653961 36.7239C0 35.4405 0 33.7603 0 30.4V9.6Z" fill="#ED1C24"/>
<path d="M7.35287 15H9.92319V21.7949C9.90951 23.7363 8.39194 25.0352 6.21811 25.0352C4.33139 25.0352 2.78647 24.0918 2.80014 21.8496H5.3978C5.42514 22.6016 5.78061 22.998 6.38217 22.998C7.01108 22.998 7.3392 22.5879 7.35287 21.7949V15Z" fill="white"/>
<path d="M14.804 25.0352C12.4388 25.0352 10.9896 23.5996 10.9896 21.207C10.9896 18.9102 12.4525 17.3789 14.7494 17.3789C16.9505 17.3789 18.4134 18.8008 18.4134 21.1797V21.7949H13.5462V21.8906C13.5462 22.6562 14.0384 23.2031 14.8587 23.2031C15.4193 23.2031 15.8705 22.957 16.0345 22.5332H18.3997C18.14 24.0645 16.8275 25.0352 14.804 25.0352ZM13.5462 20.3457H16.0208C16.0072 19.6758 15.4876 19.2109 14.804 19.2109C14.1136 19.2109 13.5667 19.6826 13.5462 20.3457Z" fill="white"/>
<path d="M22.1048 20.7012V24.8984H19.5208V17.4746H21.9681V18.8691H22.0501C22.3783 17.9395 23.2259 17.3789 24.3197 17.3789C25.8919 17.3789 26.9173 18.5273 26.9037 20.168V24.8984H24.3197V20.7012C24.3333 19.9355 23.9232 19.4844 23.2259 19.4844C22.5423 19.4844 22.1048 19.9355 22.1048 20.7012Z" fill="white"/>
<path d="M28.2298 24.8984V15H30.8275V19.0469H30.9642L34.0267 15H37.0755L33.6849 19.416L37.1439 24.8984H34.0267L31.7435 21.1387L30.8275 22.3145V24.8984H28.2298Z" fill="white"/>
</g>
</svg>
