<svg width="16" height="16" viewBox="0 0 16 16" fill="none" xmlns="http://www.w3.org/2000/svg">
<path d="M5.20084 4.37333C5.02506 4.37333 4.87545 4.43483 4.752 4.55783C4.62845 4.68083 4.56667 4.83017 4.56667 5.00583C4.56667 5.18161 4.62817 5.33122 4.75117 5.45467C4.87417 5.57822 5.0235 5.64 5.19917 5.64C5.37495 5.64 5.52456 5.5785 5.648 5.4555C5.77156 5.3325 5.83334 5.18311 5.83334 5.00733C5.83334 4.83167 5.77184 4.68206 5.64884 4.5585C5.52584 4.43506 5.3765 4.37333 5.20084 4.37333ZM5.20084 10.363C5.02506 10.363 4.87545 10.4245 4.752 10.5475C4.62845 10.6705 4.56667 10.8199 4.56667 10.9957C4.56667 11.1713 4.62817 11.3209 4.75117 11.4445C4.87417 11.5679 5.0235 11.6297 5.19917 11.6297C5.37495 11.6297 5.52456 11.5682 5.648 11.4452C5.77156 11.3222 5.83334 11.1728 5.83334 10.9972C5.83334 10.8214 5.77184 10.6718 5.64884 10.5483C5.52584 10.4248 5.3765 10.363 5.20084 10.363ZM3.4565 2.54H12.5435C12.7484 2.54 12.9202 2.60917 13.0588 2.7475C13.1974 2.88572 13.2667 3.05706 13.2667 3.2615V6.71167C13.2667 6.92989 13.1974 7.11139 13.0588 7.25617C12.9202 7.40094 12.7484 7.47333 12.5435 7.47333H3.4565C3.25162 7.47333 3.07984 7.40094 2.94117 7.25617C2.80262 7.11139 2.73334 6.92989 2.73334 6.71167V3.2615C2.73334 3.05706 2.80262 2.88572 2.94117 2.7475C3.07984 2.60917 3.25162 2.54 3.4565 2.54ZM3.4565 8.52967H12.5307C12.7446 8.52967 12.9207 8.60144 13.059 8.745C13.1974 8.88844 13.2667 9.06628 13.2667 9.2785V12.6887C13.2667 12.9153 13.1974 13.1011 13.059 13.2458C12.9207 13.3906 12.7446 13.463 12.5307 13.463H3.46934C3.25545 13.463 3.07934 13.3906 2.941 13.2458C2.80256 13.1011 2.73334 12.9153 2.73334 12.6887V9.2785C2.73334 9.06628 2.80039 8.88844 2.9345 8.745C3.06862 8.60144 3.24262 8.52967 3.4565 8.52967Z" fill="#3D3E40"/>
</svg>
