<svg width="40" height="40" viewBox="0 0 40 40" fill="none" xmlns="http://www.w3.org/2000/svg">
<mask id="mask0_851_100716" style="mask-type:alpha" maskUnits="userSpaceOnUse" x="0" y="0" width="40" height="40">
<rect width="40" height="40" rx="6" fill="#D9D9D9"/>
</mask>
<g mask="url(#mask0_851_100716)">
<path d="M0 9.6C0 6.23969 0 4.55953 0.653961 3.27606C1.2292 2.14708 2.14708 1.2292 3.27606 0.653961C4.55953 0 6.23969 0 9.6 0H30.4C33.7603 0 35.4405 0 36.7239 0.653961C37.8529 1.2292 38.7708 2.14708 39.346 3.27606C40 4.55953 40 6.23969 40 9.6V30.4C40 33.7603 40 35.4405 39.346 36.7239C38.7708 37.8529 37.8529 38.7708 36.7239 39.346C35.4405 40 33.7603 40 30.4 40H9.6C6.23969 40 4.55953 40 3.27606 39.346C2.14708 38.7708 1.2292 37.8529 0.653961 36.7239C0 35.4405 0 33.7603 0 30.4V9.6Z" fill="#707070"/>
<path d="M3 24.8984V15H7.21094C9.42578 15 10.875 16.3945 10.875 18.4727C10.875 20.5918 9.38477 21.918 7.12891 21.918H5.59766V24.8984H3ZM5.59766 19.8945H6.60938C7.59375 19.8945 8.1543 19.3477 8.1543 18.4727C8.1543 17.6113 7.59375 17.0781 6.60938 17.0781H5.59766V19.8945Z" fill="#C3C3C3"/>
<path d="M11.9277 24.8984V17.4746H14.4297V18.8691H14.5117C14.7852 17.8438 15.4004 17.3789 16.207 17.3789C16.4395 17.3789 16.6719 17.4062 16.877 17.4609V19.6895C16.6172 19.5938 16.1797 19.5527 15.9062 19.5527C15.0996 19.5527 14.5117 20.127 14.5117 20.9883V24.8984H11.9277Z" fill="#C3C3C3"/>
<path d="M21.0742 25.0352C18.6816 25.0352 17.2461 23.4902 17.2461 21.207C17.2461 18.9238 18.6816 17.3789 21.0742 17.3789C23.4668 17.3789 24.8887 18.9238 24.8887 21.207C24.8887 23.4902 23.4668 25.0352 21.0742 25.0352ZM21.0879 23.1211C21.8125 23.1211 22.25 22.3691 22.25 21.1934C22.25 20.0039 21.8125 19.2656 21.0879 19.2656C20.3359 19.2656 19.8848 20.0039 19.8848 21.1934C19.8848 22.3691 20.3359 23.1211 21.0879 23.1211Z" fill="#C3C3C3"/>
<path d="M25.9824 15H29.2227L31.5742 20.7559H31.6973L34.0488 15H37.2891V24.8984H34.7461V19.0742H34.6641L32.4082 24.8301H30.8496L28.6074 19.0332H28.5254V24.8984H25.9824V15Z" fill="#C3C3C3"/>
</g>
</svg>
