<svg width="16" height="16" viewBox="0 0 16 16" fill="none" xmlns="http://www.w3.org/2000/svg">
<g id="icon/fill-on/deployed-code(300)">
<g id="Vector">
<path d="M7.39743 14.1372L2.93592 11.5692C2.74617 11.4598 2.59831 11.3137 2.49233 11.1308C2.38634 10.9479 2.33335 10.747 2.33335 10.5282V5.4718C2.33335 5.253 2.38634 5.05215 2.49233 4.86925C2.59831 4.68634 2.74617 4.54018 2.93592 4.43078L7.39743 1.86285C7.58718 1.75345 7.78803 1.69875 8 1.69875C8.21197 1.69875 8.41282 1.75345 8.60257 1.86285L13.0641 4.43078C13.2538 4.54018 13.4017 4.68634 13.5077 4.86925C13.6137 5.05215 13.6667 5.253 13.6667 5.4718V10.5282C13.6667 10.747 13.6137 10.9479 13.5077 11.1308C13.4017 11.3137 13.2538 11.4598 13.0641 11.5692L8.60257 14.1372C8.41282 14.2466 8.21197 14.3013 8 14.3013C7.78803 14.3013 7.58718 14.2466 7.39743 14.1372ZM7.50002 8.28717V13.0462L7.91025 13.2821C7.94016 13.2991 7.97008 13.3077 8 13.3077C8.02992 13.3077 8.05984 13.2991 8.08975 13.2821L8.49998 13.0462V8.28717L12.6667 5.87435V5.4436C12.6667 5.42223 12.6613 5.40086 12.6506 5.37948C12.64 5.35812 12.6239 5.34102 12.6026 5.3282L12.1167 5.04617L8 7.42565L3.88332 5.04617L3.39743 5.3282C3.37607 5.34102 3.36004 5.35812 3.34937 5.37948C3.33868 5.40086 3.33333 5.42223 3.33333 5.4436V5.87435L7.50002 8.28717Z" fill="#000000"/>
</g>
</g>
</svg>
